<svg aria-roledescription="mindmap" role="graphics-document document" viewBox="5 5 1426.3143310546875 589.5970458984375" style="max-width: 1426.3143310546875px;" xmlns="http://www.w3.org/2000/svg" width="100%" id="tmpMermaidElement5287"><style>svg {background: white;}#tmpMermaidElement5287{font-family:"trebuchet ms",verdana,arial,sans-serif;font-size:16px;fill:#333;}#tmpMermaidElement5287 .error-icon{fill:#552222;}#tmpMermaidElement5287 .error-text{fill:#552222;stroke:#552222;}#tmpMermaidElement5287 .edge-thickness-normal{stroke-width:2px;}#tmpMermaidElement5287 .edge-thickness-thick{stroke-width:3.5px;}#tmpMermaidElement5287 .edge-pattern-solid{stroke-dasharray:0;}#tmpMermaidElement5287 .edge-pattern-dashed{stroke-dasharray:3;}#tmpMermaidElement5287 .edge-pattern-dotted{stroke-dasharray:2;}#tmpMermaidElement5287 .marker{fill:#333333;stroke:#333333;}#tmpMermaidElement5287 .marker.cross{stroke:#333333;}#tmpMermaidElement5287 svg{font-family:"trebuchet ms",verdana,arial,sans-serif;font-size:16px;}#tmpMermaidElement5287 .edge{stroke-width:3;}#tmpMermaidElement5287 .section--1 rect,#tmpMermaidElement5287 .section--1 path,#tmpMermaidElement5287 .section--1 circle,#tmpMermaidElement5287 .section--1 polygon,#tmpMermaidElement5287 .section--1 path{fill:hsl(240, 100%, 76.2745098039%);}#tmpMermaidElement5287 .section--1 text{fill:#ffffff;}#tmpMermaidElement5287 .node-icon--1{font-size:40px;color:#ffffff;}#tmpMermaidElement5287 .section-edge--1{stroke:hsl(240, 100%, 76.2745098039%);}#tmpMermaidElement5287 .edge-depth--1{stroke-width:17;}#tmpMermaidElement5287 .section--1 line{stroke:hsl(60, 100%, 86.2745098039%);stroke-width:3;}#tmpMermaidElement5287 .disabled,#tmpMermaidElement5287 .disabled circle,#tmpMermaidElement5287 .disabled text{fill:lightgray;}#tmpMermaidElement5287 .disabled text{fill:#efefef;}#tmpMermaidElement5287 .section-0 rect,#tmpMermaidElement5287 .section-0 path,#tmpMermaidElement5287 .section-0 circle,#tmpMermaidElement5287 .section-0 polygon,#tmpMermaidElement5287 .section-0 path{fill:hsl(60, 100%, 73.5294117647%);}#tmpMermaidElement5287 .section-0 text{fill:black;}#tmpMermaidElement5287 .node-icon-0{font-size:40px;color:black;}#tmpMermaidElement5287 .section-edge-0{stroke:hsl(60, 100%, 73.5294117647%);}#tmpMermaidElement5287 .edge-depth-0{stroke-width:14;}#tmpMermaidElement5287 .section-0 line{stroke:hsl(240, 100%, 83.5294117647%);stroke-width:3;}#tmpMermaidElement5287 .disabled,#tmpMermaidElement5287 .disabled circle,#tmpMermaidElement5287 .disabled text{fill:lightgray;}#tmpMermaidElement5287 .disabled text{fill:#efefef;}#tmpMermaidElement5287 .section-1 rect,#tmpMermaidElement5287 .section-1 path,#tmpMermaidElement5287 .section-1 circle,#tmpMermaidElement5287 .section-1 polygon,#tmpMermaidElement5287 .section-1 path{fill:hsl(80, 100%, 76.2745098039%);}#tmpMermaidElement5287 .section-1 text{fill:black;}#tmpMermaidElement5287 .node-icon-1{font-size:40px;color:black;}#tmpMermaidElement5287 .section-edge-1{stroke:hsl(80, 100%, 76.2745098039%);}#tmpMermaidElement5287 .edge-depth-1{stroke-width:11;}#tmpMermaidElement5287 .section-1 line{stroke:hsl(260, 100%, 86.2745098039%);stroke-width:3;}#tmpMermaidElement5287 .disabled,#tmpMermaidElement5287 .disabled circle,#tmpMermaidElement5287 .disabled text{fill:lightgray;}#tmpMermaidElement5287 .disabled text{fill:#efefef;}#tmpMermaidElement5287 .section-2 rect,#tmpMermaidElement5287 .section-2 path,#tmpMermaidElement5287 .section-2 circle,#tmpMermaidElement5287 .section-2 polygon,#tmpMermaidElement5287 .section-2 path{fill:hsl(270, 100%, 76.2745098039%);}#tmpMermaidElement5287 .section-2 text{fill:#ffffff;}#tmpMermaidElement5287 .node-icon-2{font-size:40px;color:#ffffff;}#tmpMermaidElement5287 .section-edge-2{stroke:hsl(270, 100%, 76.2745098039%);}#tmpMermaidElement5287 .edge-depth-2{stroke-width:8;}#tmpMermaidElement5287 .section-2 line{stroke:hsl(90, 100%, 86.2745098039%);stroke-width:3;}#tmpMermaidElement5287 .disabled,#tmpMermaidElement5287 .disabled circle,#tmpMermaidElement5287 .disabled text{fill:lightgray;}#tmpMermaidElement5287 .disabled text{fill:#efefef;}#tmpMermaidElement5287 .section-3 rect,#tmpMermaidElement5287 .section-3 path,#tmpMermaidElement5287 .section-3 circle,#tmpMermaidElement5287 .section-3 polygon,#tmpMermaidElement5287 .section-3 path{fill:hsl(300, 100%, 76.2745098039%);}#tmpMermaidElement5287 .section-3 text{fill:black;}#tmpMermaidElement5287 .node-icon-3{font-size:40px;color:black;}#tmpMermaidElement5287 .section-edge-3{stroke:hsl(300, 100%, 76.2745098039%);}#tmpMermaidElement5287 .edge-depth-3{stroke-width:5;}#tmpMermaidElement5287 .section-3 line{stroke:hsl(120, 100%, 86.2745098039%);stroke-width:3;}#tmpMermaidElement5287 .disabled,#tmpMermaidElement5287 .disabled circle,#tmpMermaidElement5287 .disabled text{fill:lightgray;}#tmpMermaidElement5287 .disabled text{fill:#efefef;}#tmpMermaidElement5287 .section-4 rect,#tmpMermaidElement5287 .section-4 path,#tmpMermaidElement5287 .section-4 circle,#tmpMermaidElement5287 .section-4 polygon,#tmpMermaidElement5287 .section-4 path{fill:hsl(330, 100%, 76.2745098039%);}#tmpMermaidElement5287 .section-4 text{fill:black;}#tmpMermaidElement5287 .node-icon-4{font-size:40px;color:black;}#tmpMermaidElement5287 .section-edge-4{stroke:hsl(330, 100%, 76.2745098039%);}#tmpMermaidElement5287 .edge-depth-4{stroke-width:2;}#tmpMermaidElement5287 .section-4 line{stroke:hsl(150, 100%, 86.2745098039%);stroke-width:3;}#tmpMermaidElement5287 .disabled,#tmpMermaidElement5287 .disabled circle,#tmpMermaidElement5287 .disabled text{fill:lightgray;}#tmpMermaidElement5287 .disabled text{fill:#efefef;}#tmpMermaidElement5287 .section-5 rect,#tmpMermaidElement5287 .section-5 path,#tmpMermaidElement5287 .section-5 circle,#tmpMermaidElement5287 .section-5 polygon,#tmpMermaidElement5287 .section-5 path{fill:hsl(0, 100%, 76.2745098039%);}#tmpMermaidElement5287 .section-5 text{fill:black;}#tmpMermaidElement5287 .node-icon-5{font-size:40px;color:black;}#tmpMermaidElement5287 .section-edge-5{stroke:hsl(0, 100%, 76.2745098039%);}#tmpMermaidElement5287 .edge-depth-5{stroke-width:-1;}#tmpMermaidElement5287 .section-5 line{stroke:hsl(180, 100%, 86.2745098039%);stroke-width:3;}#tmpMermaidElement5287 .disabled,#tmpMermaidElement5287 .disabled circle,#tmpMermaidElement5287 .disabled text{fill:lightgray;}#tmpMermaidElement5287 .disabled text{fill:#efefef;}#tmpMermaidElement5287 .section-6 rect,#tmpMermaidElement5287 .section-6 path,#tmpMermaidElement5287 .section-6 circle,#tmpMermaidElement5287 .section-6 polygon,#tmpMermaidElement5287 .section-6 path{fill:hsl(30, 100%, 76.2745098039%);}#tmpMermaidElement5287 .section-6 text{fill:black;}#tmpMermaidElement5287 .node-icon-6{font-size:40px;color:black;}#tmpMermaidElement5287 .section-edge-6{stroke:hsl(30, 100%, 76.2745098039%);}#tmpMermaidElement5287 .edge-depth-6{stroke-width:-4;}#tmpMermaidElement5287 .section-6 line{stroke:hsl(210, 100%, 86.2745098039%);stroke-width:3;}#tmpMermaidElement5287 .disabled,#tmpMermaidElement5287 .disabled circle,#tmpMermaidElement5287 .disabled text{fill:lightgray;}#tmpMermaidElement5287 .disabled text{fill:#efefef;}#tmpMermaidElement5287 .section-7 rect,#tmpMermaidElement5287 .section-7 path,#tmpMermaidElement5287 .section-7 circle,#tmpMermaidElement5287 .section-7 polygon,#tmpMermaidElement5287 .section-7 path{fill:hsl(90, 100%, 76.2745098039%);}#tmpMermaidElement5287 .section-7 text{fill:black;}#tmpMermaidElement5287 .node-icon-7{font-size:40px;color:black;}#tmpMermaidElement5287 .section-edge-7{stroke:hsl(90, 100%, 76.2745098039%);}#tmpMermaidElement5287 .edge-depth-7{stroke-width:-7;}#tmpMermaidElement5287 .section-7 line{stroke:hsl(270, 100%, 86.2745098039%);stroke-width:3;}#tmpMermaidElement5287 .disabled,#tmpMermaidElement5287 .disabled circle,#tmpMermaidElement5287 .disabled text{fill:lightgray;}#tmpMermaidElement5287 .disabled text{fill:#efefef;}#tmpMermaidElement5287 .section-8 rect,#tmpMermaidElement5287 .section-8 path,#tmpMermaidElement5287 .section-8 circle,#tmpMermaidElement5287 .section-8 polygon,#tmpMermaidElement5287 .section-8 path{fill:hsl(150, 100%, 76.2745098039%);}#tmpMermaidElement5287 .section-8 text{fill:black;}#tmpMermaidElement5287 .node-icon-8{font-size:40px;color:black;}#tmpMermaidElement5287 .section-edge-8{stroke:hsl(150, 100%, 76.2745098039%);}#tmpMermaidElement5287 .edge-depth-8{stroke-width:-10;}#tmpMermaidElement5287 .section-8 line{stroke:hsl(330, 100%, 86.2745098039%);stroke-width:3;}#tmpMermaidElement5287 .disabled,#tmpMermaidElement5287 .disabled circle,#tmpMermaidElement5287 .disabled text{fill:lightgray;}#tmpMermaidElement5287 .disabled text{fill:#efefef;}#tmpMermaidElement5287 .section-9 rect,#tmpMermaidElement5287 .section-9 path,#tmpMermaidElement5287 .section-9 circle,#tmpMermaidElement5287 .section-9 polygon,#tmpMermaidElement5287 .section-9 path{fill:hsl(180, 100%, 76.2745098039%);}#tmpMermaidElement5287 .section-9 text{fill:black;}#tmpMermaidElement5287 .node-icon-9{font-size:40px;color:black;}#tmpMermaidElement5287 .section-edge-9{stroke:hsl(180, 100%, 76.2745098039%);}#tmpMermaidElement5287 .edge-depth-9{stroke-width:-13;}#tmpMermaidElement5287 .section-9 line{stroke:hsl(0, 100%, 86.2745098039%);stroke-width:3;}#tmpMermaidElement5287 .disabled,#tmpMermaidElement5287 .disabled circle,#tmpMermaidElement5287 .disabled text{fill:lightgray;}#tmpMermaidElement5287 .disabled text{fill:#efefef;}#tmpMermaidElement5287 .section-10 rect,#tmpMermaidElement5287 .section-10 path,#tmpMermaidElement5287 .section-10 circle,#tmpMermaidElement5287 .section-10 polygon,#tmpMermaidElement5287 .section-10 path{fill:hsl(210, 100%, 76.2745098039%);}#tmpMermaidElement5287 .section-10 text{fill:black;}#tmpMermaidElement5287 .node-icon-10{font-size:40px;color:black;}#tmpMermaidElement5287 .section-edge-10{stroke:hsl(210, 100%, 76.2745098039%);}#tmpMermaidElement5287 .edge-depth-10{stroke-width:-16;}#tmpMermaidElement5287 .section-10 line{stroke:hsl(30, 100%, 86.2745098039%);stroke-width:3;}#tmpMermaidElement5287 .disabled,#tmpMermaidElement5287 .disabled circle,#tmpMermaidElement5287 .disabled text{fill:lightgray;}#tmpMermaidElement5287 .disabled text{fill:#efefef;}#tmpMermaidElement5287 .section-root rect,#tmpMermaidElement5287 .section-root path,#tmpMermaidElement5287 .section-root circle,#tmpMermaidElement5287 .section-root polygon{fill:hsl(240, 100%, 46.2745098039%);}#tmpMermaidElement5287 .section-root text{fill:#ffffff;}#tmpMermaidElement5287 .icon-container{height:100%;display:flex;justify-content:center;align-items:center;}#tmpMermaidElement5287 .edge{fill:none;}#tmpMermaidElement5287 .mindmap-node-label{dy:1em;alignment-baseline:middle;text-anchor:middle;dominant-baseline:middle;text-align:center;}#tmpMermaidElement5287 :root{--mermaid-font-family:"trebuchet ms",verdana,arial,sans-serif;}</style><g></g><g></g><g class="mindmap-edges"><path class="edge section-edge-0 edge-depth-2" d="M 360.9900846648193,389.47345944372853 L 276.00045007875684,406.20291326932465 L191.01081549269443,422.9323670949208"></path><path class="edge section-edge-0 edge-depth-1" d="M 545.717803131594,402.57732073736344 L 468.17973666656474,395.27965107648447 L390.6416702015355,387.9819814156055"></path><path class="edge section-edge-0 edge-depth-1" d="M 546.449118409211,408.8081835303597 L 476.1757639689654,432.68332047039047 L405.9024095287197,456.5584574104212"></path><path class="edge section-edge-0 edge-depth-1" d="M 564.8460832998597,418.3845358580662 L 575.2966202315722,454.2679896871162 L585.7471571632847,490.1514435161662"></path><path class="edge section-edge-0 edge-depth-0" d="M 663.4347875430187,318.33064688716433 L 617.8049635553798,356.35538317645455 L572.1751395677409,394.38011946574477"></path><path class="edge section-edge-1 edge-depth-2" d="M 273.8331403885538,224.92368589559732 L 316.1917626310635,200.7775605452816 L358.55038487357325,176.6314351949659"></path><path class="edge section-edge-1 edge-depth-2" d="M 246.67248487108682,237.38850252935944 L 189.55273500654846,257.74888691611255 L132.4329851420101,278.10927130286564"></path><path class="edge section-edge-1 edge-depth-2" d="M 245.94861805056965,230.2579162441023 L 165.28366637931452,218.88455515155366 L84.6187147080594,207.51119405900502"></path><path class="edge section-edge-1 edge-depth-2" d="M 257.5896658667062,247.0041862033247 L 250.5691538615563,279.02896935909627 L243.5486418564064,311.0537525148678"></path><path class="edge section-edge-1 edge-depth-2" d="M 250.9035877728059,221.08149344474975 L 224.41006065291504,190.91426136364663 L197.91653353302416,160.7470292825435"></path><path class="edge section-edge-1 edge-depth-2" d="M 274.52069477217344,238.41755500252387 L 328.5386425967348,262.2999216212546 L382.55659042129616,286.1822882399853"></path><path class="edge section-edge-1 edge-depth-1" d="M 486.16804339816804,229.83309488960558 L 380.9844071097756,231.008785763053 L275.80077082138314,232.18447663650042"></path><path class="edge section-edge-1 edge-depth-2" d="M 534.9843263889096,109.78416771112666 L 567.5888435220679,77.84078973556726 L600.1933606552262,45.89741176000784"></path><path class="edge section-edge-1 edge-depth-2" d="M 539.125847628942,118.20954808702461 L 630.1670779028208,105.51180013203651 L721.2083081766996,92.81405217704841"></path><path class="edge section-edge-1 edge-depth-2" d="M 513.0107317442107,110.3701305968797 L 479.07246835713795,80.49359777342616 L445.1342049700652,50.617064949972615"></path><path class="edge section-edge-1 edge-depth-2" d="M 509.4045885581367,118.27408692340062 L 420.5564321743139,106.27534450328076 L331.7082757904911,94.27660208316091"></path><path class="edge section-edge-1 edge-depth-1" d="M 504.2668165048407,214.98921034486423 L 512.7183769186672,174.97351111114767 L521.1699373324938,134.9578118774311"></path><path class="edge section-edge-1 edge-depth-0" d="M 661.3045940830059,302.51652205543104 L 588.0626138667257,269.1966705430223 L514.8206336504454,235.8768190306136"></path><path class="edge section-edge-2 edge-depth-2" d="M 942.2315536644745,469.2009722576007 L 985.5158744624591,498.02576076796856 L1028.8001952604438,526.8505492783364"></path><path class="edge section-edge-2 edge-depth-2" d="M 916.0188087989808,466.9321798264395 L 854.3635036076636,494.08386160838484 L792.7081984163464,521.2355433903301"></path><path class="edge section-edge-2 edge-depth-2" d="M 917.2032853461199,452.660882571091 L 883.34175028019,430.45463360880365 L849.4802152142602,408.2483846465163"></path><path class="edge section-edge-2 edge-depth-2" d="M 928.8290639102393,475.85865589982654 L 926.5809310999548,512.5419088022688 L924.3327982896703,549.2251617047112"></path><path class="edge section-edge-2 edge-depth-1" d="M 913.906513428182,356.31847767426774 L 920.7032727118672,401.1872078666502 L927.5000319955523,446.0559380590327"></path><path class="edge section-edge-2 edge-depth-2" d="M 997.3467814084928,225.13428709699028 L 1053.7196992101515,210.68046949011483 L1110.0926170118103,196.22665188323938"></path><path class="edge section-edge-2 edge-depth-2" d="M 997.5918829876885,231.44742954063452 L 1067.9038593416246,243.76181037780668 L1138.2158356955608,256.07619121497885"></path><path class="edge section-edge-2 edge-depth-2" d="M 979.481390608977,214.23525655052984 L 971.1092554976544,177.5264278684263 L962.7371203863319,140.81759918632278"></path><path class="edge section-edge-2 edge-depth-2" d="M 992.0826433351527,217.0638112005122 L 1017.3306232660505,184.92185687128165 L1042.5786031969483,152.77990254205116"></path><path class="edge section-edge-2 edge-depth-2" d="M 992.3801210682731,240.41578492614505 L 1014.1957476139344,266.7771227103831 L1036.0113741595958,293.13846049462114"></path><path class="edge section-edge-2 edge-depth-1" d="M 919.6717072078842,328.8065267312099 L 947.2383516948935,285.1736997832064 L974.8049961819028,241.5408728352029"></path><path class="edge section-edge-2 edge-depth-2" d="M 830.0205882638487,248.85609975064312 L 835.0987452564101,217.40958011956707 L840.1769022489715,185.96306048849095"></path><path class="edge section-edge-2 edge-depth-2" d="M 813.768642945603,257.9299260348923 L 753.4340899155413,232.96870139893497 L693.0995368854797,208.00747676297763"></path><path class="edge section-edge-2 edge-depth-1" d="M 900.654644797224,331.2953328077964 L 869.644606450732,302.5759660020588 L838.63456810424,273.8565991963212"></path><path class="edge section-edge-2 edge-depth-2" d="M 1170.897066866203,342.06204430145726 L 1229.5278211209456,314.3693211137427 L1288.1585753756883,286.6765979260282"></path><path class="edge section-edge-2 edge-depth-2" d="M 1172.3322498708885,348.24773175928436 L 1255.7107940136702,347.02172409372656 L1339.089338156452,345.79571642816876"></path><path class="edge section-edge-2 edge-depth-2" d="M 1171.123807335274,354.3706133349017 L 1233.003456354259,380.8562295504154 L1294.883105373244,407.34184576592907"></path><path class="edge section-edge-2 edge-depth-1" d="M 926.6538765992981,341.9137093410215 L 1034.4968996630182,344.9779698483259 L1142.3399227267382,348.04223035563035"></path><path class="edge section-edge-2 edge-depth-2" d="M 721.1000833794703,384.39502947605706 L 728.5668238439421,412.5762474814512 L736.0335643084138,440.75746548684526"></path><path class="edge section-edge-2 edge-depth-2" d="M 702.6622395609634,366.43785096862445 L 627.0621803810164,348.529858123921 L551.4621212010695,330.6218652792175"></path><path class="edge section-edge-2 edge-depth-1" d="M 896.817560267536,343.6565674901413 L 814.4591272083474,355.69150662441683 L732.1006941491589,367.72644575869236"></path><path class="edge section-edge-2 edge-depth-2" d="M 1072.0571641972183,412.60713585234316 L 1131.2578644210855,436.67641957723777 L1190.4585646449527,460.7457033021325"></path><path class="edge section-edge-2 edge-depth-2" d="M 1067.0325949597493,419.05342034631224 L 1088.3674451813463,448.1442851478003 L1109.7022954029433,477.23514994928837"></path><path class="edge section-edge-2 edge-depth-1" d="M 925.3546502080594,347.6076853660787 L 984.9108246100348,374.2226613436179 L1044.4669990120099,400.8376373211571"></path><path class="edge section-edge-2 edge-depth-0" d="M 689.8164914093064,310.7843119310568 L 793.3090247040967,325.1077841969021 L896.801557998887,339.43125646274746"></path></g><g class="mindmap-nodes"><g transform="translate(621.7706212725292, 288.3278983348838)" class="mindmap-node section--1 section-root"><g transform="translate(53.1875, 20.4)"><circle r="53.1875" class="node-bkg node-circle" id="node-0"></circle></g><g transform="translate(53.1875, 5)" text-anchor="middle" dominant-baseline="middle" alignment-baseline="middle" dy="1em"><g><rect class="background"></rect><text y="-10.1"><tspan dy="1.1em" y="-0.1em" x="0" class="text-outer-tspan"><tspan font-weight="normal" class="text-inner-tspan" font-style="normal">IgniteVision</tspan></tspan></text></g></g></g><g transform="translate(515.6635245882304, 383.58286801802535)" class="mindmap-node section-0"><g><path d="M0 35.8 v-30.799999999999997 q0,-5 5,-5 h79.9765625 q5,0 5,5 v35.8 H0 Z" class="node-bkg node-no-border" id="node-1"></path><line y2="40.8" x2="89.9765625" y1="40.8" x1="0" class="node-line-0"></line></g><g transform="translate(44.98828125, 5)" text-anchor="middle" dominant-baseline="middle" alignment-baseline="middle" dy="1em"><g><rect class="background"></rect><text y="-10.1"><tspan dy="1.1em" y="-0.1em" x="0" class="text-outer-tspan"><tspan font-weight="normal" class="text-inner-tspan" font-style="normal">Overview</tspan></tspan></text></g></g></g><g transform="translate(296.43422999489906, 366.17643413494363)" class="mindmap-node section-0"><g><path d="M0 35.8 v-30.799999999999997 q0,-5 5,-5 h148.546875 q5,0 5,5 v35.8 H0 Z" class="node-bkg node-no-border" id="node-2"></path><line y2="40.8" x2="158.546875" y1="40.8" x1="0" class="node-line-0"></line></g><g transform="translate(79.2734375, 5)" text-anchor="middle" dominant-baseline="middle" alignment-baseline="middle" dy="1em"><g><rect class="background"></rect><text y="-10.1"><tspan dy="1.1em" y="-0.1em" x="0" class="text-outer-tspan"><tspan font-weight="normal" class="text-inner-tspan" font-style="normal">Mobile</tspan><tspan font-weight="normal" class="text-inner-tspan" font-style="normal"> Application</tspan></tspan></text></g></g></g><g transform="translate(113.70729516261463, 405.4293924037057)" class="mindmap-node section-0"><g><path d="M0 35.8 v-30.799999999999997 q0,-5 5,-5 h115.171875 q5,0 5,5 v35.8 H0 Z" class="node-bkg node-no-border" id="node-3"></path><line y2="40.8" x2="125.171875" y1="40.8" x1="0" class="node-line-0"></line></g><g transform="translate(62.5859375, 5)" text-anchor="middle" dominant-baseline="middle" alignment-baseline="middle" dy="1em"><g><rect class="background"></rect><text y="-10.1"><tspan dy="1.1em" y="-0.1em" x="0" class="text-outer-tspan"><tspan font-weight="normal" class="text-inner-tspan" font-style="normal">Android</tspan><tspan font-weight="normal" class="text-inner-tspan" font-style="normal"> &amp;</tspan><tspan font-weight="normal" class="text-inner-tspan" font-style="normal"> iOS</tspan></tspan></text></g></g></g><g transform="translate(286.80128459970035, 440.98377292275563)" class="mindmap-node section-0"><g><path d="M0 35.8 v-30.799999999999997 q0,-5 5,-5 h199.796875 q5,0 5,5 v35.8 H0 Z" class="node-bkg node-no-border" id="node-4"></path><line y2="40.8" x2="209.796875" y1="40.8" x1="0" class="node-line-0"></line></g><g transform="translate(104.8984375, 5)" text-anchor="middle" dominant-baseline="middle" alignment-baseline="middle" dy="1em"><g><rect class="background"></rect><text y="-10.1"><tspan dy="1.1em" y="-0.1em" x="0" class="text-outer-tspan"><tspan font-weight="normal" class="text-inner-tspan" font-style="normal">Capture</tspan><tspan font-weight="normal" class="text-inner-tspan" font-style="normal"> Transaction</tspan><tspan font-weight="normal" class="text-inner-tspan" font-style="normal"> Slips</tspan></tspan></text></g></g></g><g transform="translate(506.738309624914, 484.1531113562071)" class="mindmap-node section-0"><g><path d="M0 35.8 v-30.799999999999997 q0,-5 5,-5 h156.40625 q5,0 5,5 v35.8 H0 Z" class="node-bkg node-no-border" id="node-5"></path><line y2="40.8" x2="166.40625" y1="40.8" x1="0" class="node-line-0"></line></g><g transform="translate(83.203125, 5)" text-anchor="middle" dominant-baseline="middle" alignment-baseline="middle" dy="1em"><g><rect class="background"></rect><text y="-10.1"><tspan dy="1.1em" y="-0.1em" x="0" class="text-outer-tspan"><tspan font-weight="normal" class="text-inner-tspan" font-style="normal">Image</tspan><tspan font-weight="normal" class="text-inner-tspan" font-style="normal"> Optimization</tspan></tspan></text></g></g></g><g transform="translate(418.5342939609221, 209.26544275116083)" class="mindmap-node section-1"><g><path d="M0 35.8 v-30.799999999999997 q0,-5 5,-5 h155.265625 q5,0 5,5 v35.8 H0 Z" class="node-bkg node-no-border" id="node-6"></path><line y2="40.8" x2="165.265625" y1="40.8" x1="0" class="node-line-1"></line></g><g transform="translate(82.6328125, 5)" text-anchor="middle" dominant-baseline="middle" alignment-baseline="middle" dy="1em"><g><rect class="background"></rect><text y="-10.1"><tspan dy="1.1em" y="-0.1em" x="0" class="text-outer-tspan"><tspan font-weight="normal" class="text-inner-tspan" font-style="normal">Technical</tspan><tspan font-weight="normal" class="text-inner-tspan" font-style="normal"> Workflow</tspan></tspan></text></g></g></g><g transform="translate(186.87983275862905, 211.95212877494515)" class="mindmap-node section-1"><g><path d="M0 35.8 v-30.799999999999997 q0,-5 5,-5 h137.84375 q5,0 5,5 v35.8 H0 Z" class="node-bkg node-no-border" id="node-7"></path><line y2="40.8" x2="147.84375" y1="40.8" x1="0" class="node-line-1"></line></g><g transform="translate(73.921875, 5)" text-anchor="middle" dominant-baseline="middle" alignment-baseline="middle" dy="1em"><g><rect class="background"></rect><text y="-10.1"><tspan dy="1.1em" y="-0.1em" x="0" class="text-outer-tspan"><tspan font-weight="normal" class="text-inner-tspan" font-style="normal">User</tspan><tspan font-weight="normal" class="text-inner-tspan" font-style="normal"> Interactions</tspan></tspan></text></g></g></g><g transform="translate(312.710723753498, 148.80299231561804)" class="mindmap-node section-1"><g><path d="M0 35.8 v-30.799999999999997 q0,-5 5,-5 h107.7421875 q5,0 5,5 v35.8 H0 Z" class="node-bkg node-no-border" id="node-8"></path><line y2="40.8" x2="117.7421875" y1="40.8" x1="0" class="node-line-1"></line></g><g transform="translate(58.87109375, 5)" text-anchor="middle" dominant-baseline="middle" alignment-baseline="middle" dy="1em"><g><rect class="background"></rect><text y="-10.1"><tspan dy="1.1em" y="-0.1em" x="0" class="text-outer-tspan"><tspan font-weight="normal" class="text-inner-tspan" font-style="normal">App</tspan><tspan font-weight="normal" class="text-inner-tspan" font-style="normal"> Opening</tspan></tspan></text></g></g></g><g transform="translate(88.04594975446787, 262.74564505727994)" class="mindmap-node section-1"><g><path d="M0 35.8 v-30.799999999999997 q0,-5 5,-5 h50.515625 q5,0 5,5 v35.8 H0 Z" class="node-bkg node-no-border" id="node-9"></path><line y2="40.8" x2="60.515625" y1="40.8" x1="0" class="node-line-1"></line></g><g transform="translate(30.2578125, 5)" text-anchor="middle" dominant-baseline="middle" alignment-baseline="middle" dy="1em"><g><rect class="background"></rect><text y="-10.1"><tspan dy="1.1em" y="-0.1em" x="0" class="text-outer-tspan"><tspan font-weight="normal" class="text-inner-tspan" font-style="normal">Login</tspan></tspan></text></g></g></g><g transform="translate(15, 185.01698152816215)" class="mindmap-node section-1"><g><path d="M0 35.8 v-30.799999999999997 q0,-5 5,-5 h99.53125 q5,0 5,5 v35.8 H0 Z" class="node-bkg node-no-border" id="node-10"></path><line y2="40.8" x2="109.53125" y1="40.8" x1="0" class="node-line-1"></line></g><g transform="translate(54.765625, 5)" text-anchor="middle" dominant-baseline="middle" alignment-baseline="middle" dy="1em"><g><rect class="background"></rect><text y="-10.1"><tspan dy="1.1em" y="-0.1em" x="0" class="text-outer-tspan"><tspan font-weight="normal" class="text-inner-tspan" font-style="normal">Registration</tspan></tspan></text></g></g></g><g transform="translate(176.22331871448353, 305.30580994324737)" class="mindmap-node section-1"><g><path d="M0 35.8 v-30.799999999999997 q0,-5 5,-5 h118.2265625 q5,0 5,5 v35.8 H0 Z" class="node-bkg node-no-border" id="node-11"></path><line y2="40.8" x2="128.2265625" y1="40.8" x1="0" class="node-line-1"></line></g><g transform="translate(64.11328125, 5)" text-anchor="middle" dominant-baseline="middle" alignment-baseline="middle" dy="1em"><g><rect class="background"></rect><text y="-10.1"><tspan dy="1.1em" y="-0.1em" x="0" class="text-outer-tspan"><tspan font-weight="normal" class="text-inner-tspan" font-style="normal">Camera</tspan><tspan font-weight="normal" class="text-inner-tspan" font-style="normal"> Usage</tspan></tspan></text></g></g></g><g transform="translate(116.03403854720102, 129.0763939523481)" class="mindmap-node section-1"><g><path d="M0 35.8 v-30.799999999999997 q0,-5 5,-5 h133.96875 q5,0 5,5 v35.8 H0 Z" class="node-bkg node-no-border" id="node-12"></path><line y2="40.8" x2="143.96875" y1="40.8" x1="0" class="node-line-1"></line></g><g transform="translate(71.984375, 5)" text-anchor="middle" dominant-baseline="middle" alignment-baseline="middle" dy="1em"><g><rect class="background"></rect><text y="-10.1"><tspan dy="1.1em" y="-0.1em" x="0" class="text-outer-tspan"><tspan font-weight="normal" class="text-inner-tspan" font-style="normal">Project</tspan><tspan font-weight="normal" class="text-inner-tspan" font-style="normal"> Selection</tspan></tspan></text></g></g></g><g transform="translate(345.18963993484056, 271.84771446756406)" class="mindmap-node section-1"><g><path d="M0 35.8 v-30.799999999999997 q0,-5 5,-5 h92.171875 q5,0 5,5 v35.8 H0 Z" class="node-bkg node-no-border" id="node-13"></path><line y2="40.8" x2="102.171875" y1="40.8" x1="0" class="node-line-1"></line></g><g transform="translate(51.0859375, 5)" text-anchor="middle" dominant-baseline="middle" alignment-baseline="middle" dy="1em"><g><rect class="background"></rect><text y="-10.1"><tspan dy="1.1em" y="-0.1em" x="0" class="text-outer-tspan"><tspan font-weight="normal" class="text-inner-tspan" font-style="normal">API</tspan><tspan font-weight="normal" class="text-inner-tspan" font-style="normal"> Upload</tspan></tspan></text></g></g></g><g transform="translate(445.2540223764123, 99.8815794711345)" class="mindmap-node section-1"><g><path d="M0 35.8 v-30.799999999999997 q0,-5 5,-5 h148.03125 q5,0 5,5 v35.8 H0 Z" class="node-bkg node-no-border" id="node-14"></path><line y2="40.8" x2="158.03125" y1="40.8" x1="0" class="node-line-1"></line></g><g transform="translate(79.015625, 5)" text-anchor="middle" dominant-baseline="middle" alignment-baseline="middle" dy="1em"><g><rect class="background"></rect><text y="-10.1"><tspan dy="1.1em" y="-0.1em" x="0" class="text-outer-tspan"><tspan font-weight="normal" class="text-inner-tspan" font-style="normal">System</tspan><tspan font-weight="normal" class="text-inner-tspan" font-style="normal"> Responses</tspan></tspan></text></g></g></g><g transform="translate(546.0486646677235, 15)" class="mindmap-node section-1"><g><path d="M0 35.8 v-30.799999999999997 q0,-5 5,-5 h119.71875 q5,0 5,5 v35.8 H0 Z" class="node-bkg node-no-border" id="node-15"></path><line y2="40.8" x2="129.71875" y1="40.8" x1="0" class="node-line-1"></line></g><g transform="translate(64.859375, 5)" text-anchor="middle" dominant-baseline="middle" alignment-baseline="middle" dy="1em"><g><rect class="background"></rect><text y="-10.1"><tspan dy="1.1em" y="-0.1em" x="0" class="text-outer-tspan"><tspan font-weight="normal" class="text-inner-tspan" font-style="normal">Authentication</tspan></tspan></text></g></g></g><g transform="translate(660.7949771792292, 70.34202079293851)" class="mindmap-node section-1"><g><path d="M0 35.8 v-30.799999999999997 q0,-5 5,-5 h140.5390625 q5,0 5,5 v35.8 H0 Z" class="node-bkg node-no-border" id="node-16"></path><line y2="40.8" x2="150.5390625" y1="40.8" x1="0" class="node-line-1"></line></g><g transform="translate(75.26953125, 5)" text-anchor="middle" dominant-baseline="middle" alignment-baseline="middle" dy="1em"><g><rect class="background"></rect><text y="-10.1"><tspan dy="1.1em" y="-0.1em" x="0" class="text-outer-tspan"><tspan font-weight="normal" class="text-inner-tspan" font-style="normal">Image</tspan><tspan font-weight="normal" class="text-inner-tspan" font-style="normal"> Processing</tspan></tspan></text></g></g></g><g transform="translate(345.7190393378636, 20.305616075717808)" class="mindmap-node section-1"><g><path d="M0 35.8 v-30.799999999999997 q0,-5 5,-5 h166.3125 q5,0 5,5 v35.8 H0 Z" class="node-bkg node-no-border" id="node-17"></path><line y2="40.8" x2="176.3125" y1="40.8" x1="0" class="node-line-1"></line></g><g transform="translate(88.15625, 5)" text-anchor="middle" dominant-baseline="middle" alignment-baseline="middle" dy="1em"><g><rect class="background"></rect><text y="-10.1"><tspan dy="1.1em" y="-0.1em" x="0" class="text-outer-tspan"><tspan font-weight="normal" class="text-inner-tspan" font-style="normal">Upload</tspan><tspan font-weight="normal" class="text-inner-tspan" font-style="normal"> Confirmation</tspan></tspan></text></g></g></g><g transform="translate(252.1049357222155, 71.86910953542701)" class="mindmap-node section-1"><g><path d="M0 35.8 v-30.799999999999997 q0,-5 5,-5 h119.4765625 q5,0 5,5 v35.8 H0 Z" class="node-bkg node-no-border" id="node-18"></path><line y2="40.8" x2="129.4765625" y1="40.8" x1="0" class="node-line-1"></line></g><g transform="translate(64.73828125, 5)" text-anchor="middle" dominant-baseline="middle" alignment-baseline="middle" dy="1em"><g><rect class="background"></rect><text y="-10.1"><tspan dy="1.1em" y="-0.1em" x="0" class="text-outer-tspan"><tspan font-weight="normal" class="text-inner-tspan" font-style="normal">Error</tspan><tspan font-weight="normal" class="text-inner-tspan" font-style="normal"> Handling</tspan></tspan></text></g></g></g><g transform="translate(838.7146156356642, 321.0876700589205)" class="mindmap-node section-2"><g><path d="M0 35.8 v-30.799999999999997 q0,-5 5,-5 h135.890625 q5,0 5,5 v35.8 H0 Z" class="node-bkg node-no-border" id="node-19"></path><line y2="40.8" x2="145.890625" y1="40.8" x1="0" class="node-line-2"></line></g><g transform="translate(72.9453125, 5)" text-anchor="middle" dominant-baseline="middle" alignment-baseline="middle" dy="1em"><g><rect class="background"></rect><text y="-10.1"><tspan dy="1.1em" y="-0.1em" x="0" class="text-outer-tspan"><tspan font-weight="normal" class="text-inner-tspan" font-style="normal">Project</tspan><tspan font-weight="normal" class="text-inner-tspan" font-style="normal"> Structure</tspan></tspan></text></g></g></g><g transform="translate(851.1606797880701, 440.48674567438)" class="mindmap-node section-2"><g><path d="M0 35.8 v-30.799999999999997 q0,-5 5,-5 h147.171875 q5,0 5,5 v35.8 H0 Z" class="node-bkg node-no-border" id="node-20"></path><line y2="40.8" x2="157.171875" y1="40.8" x1="0" class="node-line-2"></line></g><g transform="translate(78.5859375, 5)" text-anchor="middle" dominant-baseline="middle" alignment-baseline="middle" dy="1em"><g><rect class="background"></rect><text y="-10.1"><tspan dy="1.1em" y="-0.1em" x="0" class="text-outer-tspan"><tspan font-weight="normal" class="text-inner-tspan" font-style="normal">Main</tspan><tspan font-weight="normal" class="text-inner-tspan" font-style="normal"> Components</tspan></tspan></text></g></g></g><g transform="translate(1008.5038816368483, 514.7647758615572)" class="mindmap-node section-2"><g><path d="M0 35.8 v-30.799999999999997 q0,-5 5,-5 h55.5625 q5,0 5,5 v35.8 H0 Z" class="node-bkg node-no-border" id="node-21"></path><line y2="40.8" x2="65.5625" y1="40.8" x1="0" class="node-line-2"></line></g><g transform="translate(32.78125, 5)" text-anchor="middle" dominant-baseline="middle" alignment-baseline="middle" dy="1em"><g><rect class="background"></rect><text y="-10.1"><tspan dy="1.1em" y="-0.1em" x="0" class="text-outer-tspan"><tspan font-weight="normal" class="text-inner-tspan" font-style="normal">App.js</tspan></tspan></text></g></g></g><g transform="translate(720.6678899272571, 506.8809775423897)" class="mindmap-node section-2"><g><path d="M0 35.8 v-30.799999999999997 q0,-5 5,-5 h106.625 q5,0 5,5 v35.8 H0 Z" class="node-bkg node-no-border" id="node-22"></path><line y2="40.8" x2="116.625" y1="40.8" x1="0" class="node-line-2"></line></g><g transform="translate(58.3125, 5)" text-anchor="middle" dominant-baseline="middle" alignment-baseline="middle" dy="1em"><g><rect class="background"></rect><text y="-10.1"><tspan dy="1.1em" y="-0.1em" x="0" class="text-outer-tspan"><tspan font-weight="normal" class="text-inner-tspan" font-style="normal">package.json</tspan></tspan></text></g></g></g><g transform="translate(811.43688327231, 379.6225215432273)" class="mindmap-node section-2"><g><path d="M0 35.8 v-30.799999999999997 q0,-5 5,-5 h41 q5,0 5,5 v35.8 H0 Z" class="node-bkg node-no-border" id="node-23"></path><line y2="40.8" x2="51" y1="40.8" x1="0" class="node-line-2"></line></g><g transform="translate(25.5, 5)" text-anchor="middle" dominant-baseline="middle" alignment-baseline="middle" dy="1em"><g><rect class="background"></rect><text y="-10.1"><tspan dy="1.1em" y="-0.1em" x="0" class="text-outer-tspan"><tspan font-weight="normal" class="text-inner-tspan" font-style="normal">.env</tspan></tspan></text></g></g></g><g transform="translate(860.0246199118395, 543.7970719301578)" class="mindmap-node section-2"><g><path d="M0 35.8 v-30.799999999999997 q0,-5 5,-5 h116.78125 q5,0 5,5 v35.8 H0 Z" class="node-bkg node-no-border" id="node-24"></path><line y2="40.8" x2="126.78125" y1="40.8" x1="0" class="node-line-2"></line></g><g transform="translate(63.390625, 5)" text-anchor="middle" dominant-baseline="middle" alignment-baseline="middle" dy="1em"><g><rect class="background"></rect><text y="-10.1"><tspan dy="1.1em" y="-0.1em" x="0" class="text-outer-tspan"><tspan font-weight="normal" class="text-inner-tspan" font-style="normal">babel.config.js</tspan></tspan></text></g></g></g><g transform="translate(925.7894315041227, 208.45972950749228)" class="mindmap-node section-2"><g><path d="M0 35.8 v-30.799999999999997 q0,-5 5,-5 h104.0546875 q5,0 5,5 v35.8 H0 Z" class="node-bkg node-no-border" id="node-25"></path><line y2="40.8" x2="114.0546875" y1="40.8" x1="0" class="node-line-2"></line></g><g transform="translate(57.02734375, 5)" text-anchor="middle" dominant-baseline="middle" alignment-baseline="middle" dy="1em"><g><rect class="background"></rect><text y="-10.1"><tspan dy="1.1em" y="-0.1em" x="0" class="text-outer-tspan"><tspan font-weight="normal" class="text-inner-tspan" font-style="normal">Source</tspan><tspan font-weight="normal" class="text-inner-tspan" font-style="normal"> Code</tspan></tspan></text></g></g></g><g transform="translate(1100.2632481661803, 172.10120947273737)" class="mindmap-node section-2"><g><path d="M0 35.8 v-30.799999999999997 q0,-5 5,-5 h38.71875 q5,0 5,5 v35.8 H0 Z" class="node-bkg node-no-border" id="node-26"></path><line y2="40.8" x2="48.71875" y1="40.8" x1="0" class="node-line-2"></line></g><g transform="translate(24.359375, 5)" text-anchor="middle" dominant-baseline="middle" alignment-baseline="middle" dy="1em"><g><rect class="background"></rect><text y="-10.1"><tspan dy="1.1em" y="-0.1em" x="0" class="text-outer-tspan"><tspan font-weight="normal" class="text-inner-tspan" font-style="normal">api/</tspan></tspan></text></g></g></g><g transform="translate(1093.2643809291267, 238.2638912481211)" class="mindmap-node section-2"><g><path d="M0 35.8 v-30.799999999999997 q0,-5 5,-5 h109.453125 q5,0 5,5 v35.8 H0 Z" class="node-bkg node-no-border" id="node-27"></path><line y2="40.8" x2="119.453125" y1="40.8" x1="0" class="node-line-2"></line></g><g transform="translate(59.7265625, 5)" text-anchor="middle" dominant-baseline="middle" alignment-baseline="middle" dy="1em"><g><rect class="background"></rect><text y="-10.1"><tspan dy="1.1em" y="-0.1em" x="0" class="text-outer-tspan"><tspan font-weight="normal" class="text-inner-tspan" font-style="normal">components/</tspan></tspan></text></g></g></g><g transform="translate(917.7845482411861, 105.79312622936033)" class="mindmap-node section-2"><g><path d="M0 35.8 v-30.799999999999997 q0,-5 5,-5 h73.234375 q5,0 5,5 v35.8 H0 Z" class="node-bkg node-no-border" id="node-28"></path><line y2="40.8" x2="83.234375" y1="40.8" x1="0" class="node-line-2"></line></g><g transform="translate(41.6171875, 5)" text-anchor="middle" dominant-baseline="middle" alignment-baseline="middle" dy="1em"><g><rect class="background"></rect><text y="-10.1"><tspan dy="1.1em" y="-0.1em" x="0" class="text-outer-tspan"><tspan font-weight="normal" class="text-inner-tspan" font-style="normal">screens/</tspan></tspan></text></g></g></g><g transform="translate(1023.2350962779783, 120.58398423507106)" class="mindmap-node section-2"><g><path d="M0 35.8 v-30.799999999999997 q0,-5 5,-5 h47.21875 q5,0 5,5 v35.8 H0 Z" class="node-bkg node-no-border" id="node-29"></path><line y2="40.8" x2="57.21875" y1="40.8" x1="0" class="node-line-2"></line></g><g transform="translate(28.609375, 5)" text-anchor="middle" dominant-baseline="middle" alignment-baseline="middle" dy="1em"><g><rect class="background"></rect><text y="-10.1"><tspan dy="1.1em" y="-0.1em" x="0" class="text-outer-tspan"><tspan font-weight="normal" class="text-inner-tspan" font-style="normal">utils/</tspan></tspan></text></g></g></g><g transform="translate(1009.3481574737461, 284.2945159132739)" class="mindmap-node section-2"><g><path d="M0 35.8 v-30.799999999999997 q0,-5 5,-5 h62.453125 q5,0 5,5 v35.8 H0 Z" class="node-bkg node-no-border" id="node-30"></path><line y2="40.8" x2="72.453125" y1="40.8" x1="0" class="node-line-2"></line></g><g transform="translate(36.2265625, 5)" text-anchor="middle" dominant-baseline="middle" alignment-baseline="middle" dy="1em"><g><rect class="background"></rect><text y="-10.1"><tspan dy="1.1em" y="-0.1em" x="0" class="text-outer-tspan"><tspan font-weight="normal" class="text-inner-tspan" font-style="normal">assets/</tspan></tspan></text></g></g></g><g transform="translate(777.7620972657998, 243.26426194519715)" class="mindmap-node section-2"><g><path d="M0 35.8 v-30.799999999999997 q0,-5 5,-5 h89.734375 q5,0 5,5 v35.8 H0 Z" class="node-bkg node-no-border" id="node-31"></path><line y2="40.8" x2="99.734375" y1="40.8" x1="0" class="node-line-2"></line></g><g transform="translate(49.8671875, 5)" text-anchor="middle" dominant-baseline="middle" alignment-baseline="middle" dy="1em"><g><rect class="background"></rect><text y="-10.1"><tspan dy="1.1em" y="-0.1em" x="0" class="text-outer-tspan"><tspan font-weight="normal" class="text-inner-tspan" font-style="normal">Navigation</tspan></tspan></text></g></g></g><g transform="translate(773.5760182470204, 150.75489829393695)" class="mindmap-node section-2"><g><path d="M0 35.8 v-30.799999999999997 q0,-5 5,-5 h127.984375 q5,0 5,5 v35.8 H0 Z" class="node-bkg node-no-border" id="node-32"></path><line y2="40.8" x2="137.984375" y1="40.8" x1="0" class="node-line-2"></line></g><g transform="translate(68.9921875, 5)" text-anchor="middle" dominant-baseline="middle" alignment-baseline="middle" dy="1em"><g><rect class="background"></rect><text y="-10.1"><tspan dy="1.1em" y="-0.1em" x="0" class="text-outer-tspan"><tspan font-weight="normal" class="text-inner-tspan" font-style="normal">AppNavigator.js</tspan></tspan></text></g></g></g><g transform="translate(607.3717075652829, 181.87314085267275)" class="mindmap-node section-2"><g><path d="M0 35.8 v-30.799999999999997 q0,-5 5,-5 h133.734375 q5,0 5,5 v35.8 H0 Z" class="node-bkg node-no-border" id="node-33"></path><line y2="40.8" x2="143.734375" y1="40.8" x1="0" class="node-line-2"></line></g><g transform="translate(71.8671875, 5)" text-anchor="middle" dominant-baseline="middle" alignment-baseline="middle" dy="1em"><g><rect class="background"></rect><text y="-10.1"><tspan dy="1.1em" y="-0.1em" x="0" class="text-outer-tspan"><tspan font-weight="normal" class="text-inner-tspan" font-style="normal">AuthNavigator.js</tspan></tspan></text></g></g></g><g transform="translate(1092.474496190372, 328.0682696377314)" class="mindmap-node section-2"><g><path d="M0 35.8 v-30.799999999999997 q0,-5 5,-5 h119.71875 q5,0 5,5 v35.8 H0 Z" class="node-bkg node-no-border" id="node-34"></path><line y2="40.8" x2="129.71875" y1="40.8" x1="0" class="node-line-2"></line></g><g transform="translate(64.859375, 5)" text-anchor="middle" dominant-baseline="middle" alignment-baseline="middle" dy="1em"><g><rect class="background"></rect><text y="-10.1"><tspan dy="1.1em" y="-0.1em" x="0" class="text-outer-tspan"><tspan font-weight="normal" class="text-inner-tspan" font-style="normal">Authentication</tspan></tspan></text></g></g></g><g transform="translate(1236.9248960515192, 259.8703725897541)" class="mindmap-node section-2"><g><path d="M0 35.8 v-30.799999999999997 q0,-5 5,-5 h119.59375 q5,0 5,5 v35.8 H0 Z" class="node-bkg node-no-border" id="node-35"></path><line y2="40.8" x2="129.59375" y1="40.8" x1="0" class="node-line-2"></line></g><g transform="translate(64.796875, 5)" text-anchor="middle" dominant-baseline="middle" alignment-baseline="middle" dy="1em"><g><rect class="background"></rect><text y="-10.1"><tspan dy="1.1em" y="-0.1em" x="0" class="text-outer-tspan"><tspan font-weight="normal" class="text-inner-tspan" font-style="normal">AuthContext.js</tspan></tspan></text></g></g></g><g transform="translate(1286.8611543369684, 325.17517854972175)" class="mindmap-node section-2"><g><path d="M0 35.8 v-30.799999999999997 q0,-5 5,-5 h124.453125 q5,0 5,5 v35.8 H0 Z" class="node-bkg node-no-border" id="node-36"></path><line y2="40.8" x2="134.453125" y1="40.8" x1="0" class="node-line-2"></line></g><g transform="translate(67.2265625, 5)" text-anchor="middle" dominant-baseline="middle" alignment-baseline="middle" dy="1em"><g><rect class="background"></rect><text y="-10.1"><tspan dy="1.1em" y="-0.1em" x="0" class="text-outer-tspan"><tspan font-weight="normal" class="text-inner-tspan" font-style="normal">AuthProvider.js</tspan></tspan></text></g></g></g><g transform="translate(1259.805854018146, 392.8441894630994)" class="mindmap-node section-2"><g><path d="M0 35.8 v-30.799999999999997 q0,-5 5,-5 h87.734375 q5,0 5,5 v35.8 H0 Z" class="node-bkg node-no-border" id="node-37"></path><line y2="40.8" x2="97.734375" y1="40.8" x1="0" class="node-line-2"></line></g><g transform="translate(48.8671875, 5)" text-anchor="middle" dominant-baseline="middle" alignment-baseline="middle" dy="1em"><g><rect class="background"></rect><text y="-10.1"><tspan dy="1.1em" y="-0.1em" x="0" class="text-outer-tspan"><tspan font-weight="normal" class="text-inner-tspan" font-style="normal">useAuth.js</tspan></tspan></text></g></g></g><g transform="translate(649.2192637810307, 349.4953431899132)" class="mindmap-node section-2"><g><path d="M0 35.8 v-30.799999999999997 q0,-5 5,-5 h126.078125 q5,0 5,5 v35.8 H0 Z" class="node-bkg node-no-border" id="node-38"></path><line y2="40.8" x2="136.078125" y1="40.8" x1="0" class="node-line-2"></line></g><g transform="translate(68.0390625, 5)" text-anchor="middle" dominant-baseline="middle" alignment-baseline="middle" dy="1em"><g><rect class="background"></rect><text y="-10.1"><tspan dy="1.1em" y="-0.1em" x="0" class="text-outer-tspan"><tspan font-weight="normal" class="text-inner-tspan" font-style="normal">Native</tspan><tspan font-weight="normal" class="text-inner-tspan" font-style="normal"> Modules</tspan></tspan></text></g></g></g><g transform="translate(665.8050089068535, 434.85715177298914)" class="mindmap-node section-2"><g><path d="M0 35.8 v-30.799999999999997 q0,-5 5,-5 h138.140625 q5,0 5,5 v35.8 H0 Z" class="node-bkg node-no-border" id="node-39"></path><line y2="40.8" x2="148.140625" y1="40.8" x1="0" class="node-line-2"></line></g><g transform="translate(74.0703125, 5)" text-anchor="middle" dominant-baseline="middle" alignment-baseline="middle" dy="1em"><g><rect class="background"></rect><text y="-10.1"><tspan dy="1.1em" y="-0.1em" x="0" class="text-outer-tspan"><tspan font-weight="normal" class="text-inner-tspan" font-style="normal">Android</tspan><tspan font-weight="normal" class="text-inner-tspan" font-style="normal"> Modules</tspan></tspan></text></g></g></g><g transform="translate(480.0222844810022, 306.76437305792876)" class="mindmap-node section-2"><g><path d="M0 35.8 v-30.799999999999997 q0,-5 5,-5 h103.6875 q5,0 5,5 v35.8 H0 Z" class="node-bkg node-no-border" id="node-40"></path><line y2="40.8" x2="113.6875" y1="40.8" x1="0" class="node-line-2"></line></g><g transform="translate(56.84375, 5)" text-anchor="middle" dominant-baseline="middle" alignment-baseline="middle" dy="1em"><g><rect class="background"></rect><text y="-10.1"><tspan dy="1.1em" y="-0.1em" x="0" class="text-outer-tspan"><tspan font-weight="normal" class="text-inner-tspan" font-style="normal">iOS</tspan><tspan font-weight="normal" class="text-inner-tspan" font-style="normal"> Modules</tspan></tspan></text></g></g></g><g transform="translate(958.9351585844051, 386.5576526283154)" class="mindmap-node section-2"><g><path d="M0 35.8 v-30.799999999999997 q0,-5 5,-5 h188.453125 q5,0 5,5 v35.8 H0 Z" class="node-bkg node-no-border" id="node-41"></path><line y2="40.8" x2="198.453125" y1="40.8" x1="0" class="node-line-2"></line></g><g transform="translate(99.2265625, 5)" text-anchor="middle" dominant-baseline="middle" alignment-baseline="middle" dy="1em"><g><rect class="background"></rect><text y="-10.1"><tspan dy="1.1em" y="-0.1em" x="0" class="text-outer-tspan"><tspan font-weight="normal" class="text-inner-tspan" font-style="normal">Platform</tspan><tspan font-weight="normal" class="text-inner-tspan" font-style="normal"> Configurations</tspan></tspan></text></g></g></g><g transform="translate(1164.4946327577659, 445.9951865261603)" class="mindmap-node section-2"><g><path d="M0 35.8 v-30.799999999999997 q0,-5 5,-5 h69.71875 q5,0 5,5 v35.8 H0 Z" class="node-bkg node-no-border" id="node-42"></path><line y2="40.8" x2="79.71875" y1="40.8" x1="0" class="node-line-2"></line></g><g transform="translate(39.859375, 5)" text-anchor="middle" dominant-baseline="middle" alignment-baseline="middle" dy="1em"><g><rect class="background"></rect><text y="-10.1"><tspan dy="1.1em" y="-0.1em" x="0" class="text-outer-tspan"><tspan font-weight="normal" class="text-inner-tspan" font-style="normal">Android</tspan></tspan></text></g></g></g><g transform="translate(1095.8309817782874, 468.93091766728526)" class="mindmap-node section-2"><g><path d="M0 35.8 v-30.799999999999997 q0,-5 5,-5 h35.484375 q5,0 5,5 v35.8 H0 Z" class="node-bkg node-no-border" id="node-43"></path><line y2="40.8" x2="45.484375" y1="40.8" x1="0" class="node-line-2"></line></g><g transform="translate(22.7421875, 5)" text-anchor="middle" dominant-baseline="middle" alignment-baseline="middle" dy="1em"><g><rect class="background"></rect><text y="-10.1"><tspan dy="1.1em" y="-0.1em" x="0" class="text-outer-tspan"><tspan font-weight="normal" class="text-inner-tspan" font-style="normal">iOS</tspan></tspan></text></g></g></g></g></svg>